<svg xmlns="http://www.w3.org/2000/svg" width="648" height="339" fill="none"><path fill="#ebb50d" d="M510.286 192.933l-170.463 95.313-.81-.475-183.58-99.658L341.04 96.127l169.246 96.806z"/><path fill="#ffc81c" d="M341.042 96.127l-.27 191.576-1.758.068-73.026-39.646 60.652-27.3s1.555-4.006 0-6.382-5.41-3.055-5.41-3.055l-61.26 27.29 1.555 7.06-4.868-2.648-5.4-2.92-95.88-52.07 185.677-91.986z"/><path fill="#fff" d="M183.764 44.533l26.303 3.666 41.246 191.983-30.09-16.36-37.46-179.29z"/><g fill="#e0e0e0"><path d="M261.59 245.75l-4.87-2.648-5.41-2.92-18.324-85.197L210.067 48.2l7.505-3.666L240.968 151.6l20.623 94.16z"/><path d="M190.526 40.528l-6.762 4.006 26.303 3.666 7.505-3.666-27.046-4.006zM294.79 6.585l54.16 276.57 6.83-3.802-53.62-275.9-7.37 3.122z"/></g><path fill="#fff" d="M269.772 3.462L294.8 6.585l54.16 276.57-9.128 5.09-17.175-9.3L269.772 3.462z"/><path fill="#e0e0e0" d="M276.466 0l-6.694 3.462L294.8 6.585l7.37-3.123L276.466 0zm-53.82 67.75l2.434 11.066 68.1-30.617s1.555-4.005 0-6.38-5.41-3.056-5.41-3.056L222.645 67.75zm12.508 57.433l2.434 11.065 68.1-30.616s1.555-4.006 0-6.382-5.41-3.055-5.41-3.055l-65.115 28.988zm12.507 56.957l2.435 11.066 68.1-30.617s1.555-4.006 0-6.382-5.4-3.055-5.4-3.055L247.66 182.14zm78.978 38.695l-60.652 27.29-4.395-2.376-1.556-7.06 61.26-27.3s3.854.68 5.4 3.055c1.487 2.376-.068 6.38-.068 6.38z"/><path fill="#ebb50d" d="M288.03 312.484l-33.6 18.217-66.25-35.288L99.78 339 0 275.712l38.612-17.61 63.133 39.067 45.386-21.996-73.362-43.52 34.75-16.26 76.885 41.562 24.793-11.74 33.26 19.297-21.677 12.145 66.25 35.828zm359.163-201.35l-33.474 18.305-57.684-30.576-74.185 41.9L364.994 82.93l37.735-19.593 73.17 36.882 42.67-22.17-78.445-42.306 32.663-17.424 79.933 42.5 24.413-12.204 33.204 19.4L588.9 80.082l58.293 31.05z"/><path fill="#5656f4" d="M517.754 77.8l-1.1 1.05h-.065l1.166-1.05z"/><g fill="#ffc81c"><path d="M108.448 215.392l-.818 36.15-34.165-19.986 34.983-16.163zM0 275.42l38.482-18.047v43.147L0 275.42zm101.45 22.583l1.535 39.832 45.1-22.376-1.935-39.428-44.7 21.972zM364.994 82.35L402.3 62.63v38.483L364.994 82.35zm75.797-46.64l32.652-17.4v34.983L440.79 35.71zm34.985 64.236l42.047-22.154 2.265 40.65-42.58 19.987-1.732-38.484z"/><path d="M478.108 137.888l4.186 2.046 38.96-22.157"/></g></svg>